Coordinates
version=1
nRows=65
nColumns=12
inDegrees=yes

Units are S.I. units (second, meters, Newtons, ...)
Angles are in degrees

endheader
time	SC_y	SC_z	SC_x	AC_y	AC_z	AC_x	GH_y	GH_z	GH_yy	EL_x	PS_y
       0.0              -56.96          17.61           73.2          36.57         0.7393         -16.63          -76.6          69.33          62.77          54.46          144.7
   0.04263              -56.96          17.61          73.21          36.58          0.738         -16.63         -76.57          69.32          62.75          54.46          144.7
   0.08526              -56.95          17.61          73.21          36.58         0.7366         -16.63         -76.54          69.31          62.74          54.46          144.7
    0.1279              -56.95           17.6          73.21          36.58         0.7351         -16.63         -76.51          69.29          62.72          54.46          144.7
    0.1705              -56.94           17.6          73.21          36.58         0.7335         -16.63         -76.48          69.28          62.71          54.46          144.7
    0.2132              -56.94           17.6          73.21          36.59         0.7318         -16.63         -76.44          69.27          62.69          54.46          144.6
    0.2558              -56.93           17.6          73.21          36.59         0.7299         -16.63         -76.41          69.25          62.67          54.46          144.6
    0.2984              -56.92           17.6          73.21          36.59          0.728         -16.63         -76.37          69.23          62.65          54.47          144.6
     0.341              -56.91           17.6          73.22           36.6         0.7259         -16.63         -76.32          69.21          62.63          54.47          144.6
    0.3837              -56.91           17.6          73.22           36.6         0.7237         -16.63         -76.28          69.19           62.6          54.47          144.6
    0.4263               -56.9           17.6          73.22          36.61         0.7213         -16.63         -76.23          69.17          62.58          54.47          144.6
    0.4689              -56.89           17.6          73.22          36.61         0.7187         -16.62         -76.17          69.15          62.55          54.47          144.5
    0.5116              -56.88          17.59          73.23          36.61         0.7159         -16.62         -76.11          69.13          62.52          54.48          144.5
    0.5542              -56.86          17.59          73.23          36.62         0.7129         -16.62         -76.05           69.1          62.49          54.48          144.5
    0.5968              -56.85          17.59          73.23          36.63         0.7097         -16.62         -75.98          69.07          62.45          54.48          144.5
    0.6395              -56.84          17.59          73.23          36.63         0.7061         -16.62         -75.91          69.04          62.42          54.49          144.5
    0.6821              -56.82          17.59          73.24          36.64         0.7023         -16.62         -75.83          69.01          62.38          54.49          144.4
    0.7247              -56.81          17.58          73.24          36.64         0.6981         -16.61         -75.74          68.97          62.33          54.49          144.4
    0.7674              -56.79          17.58          73.25          36.65         0.6936         -16.61         -75.65          68.93          62.28           54.5          144.4
      0.81              -56.77          17.58          73.25          36.66         0.6886         -16.61         -75.55          68.89          62.23           54.5          144.3
    0.8526              -56.75          17.58          73.26          36.67         0.6831         -16.61         -75.43          68.84          62.17          54.51          144.3
    0.8952              -56.73          17.57          73.26          36.68         0.6771          -16.6         -75.31          68.79          62.11          54.51          144.2
    0.9379               -56.7          17.57          73.27          36.69         0.6704          -16.6         -75.17          68.73          62.04          54.52          144.2
    0.9805              -56.67          17.57          73.27           36.7          0.663         -16.59         -75.01          68.66          61.96          54.53          144.1
     1.023              -56.64          17.56          73.28          36.72         0.6548         -16.59         -74.84          68.59          61.87          54.53          144.1
     1.066              -56.61          17.56          73.29          36.73         0.6456         -16.59         -74.65          68.51          61.78          54.54          144.0
     1.108              -56.57          17.55           73.3          36.75         0.6354         -16.58         -74.44          68.42          61.67          54.55          143.9
     1.151              -56.53          17.54          73.31          36.77         0.6238         -16.57          -74.2          68.32          61.55          54.56          143.8
     1.194              -56.48          17.54          73.32          36.79         0.6108         -16.57         -73.93           68.2          61.41          54.58          143.7
     1.236              -56.42          17.53          73.33          36.82          0.596         -16.56         -73.62          68.07          61.25          54.59          143.6
     1.279              -56.36          17.52          73.35          36.85         0.5791         -16.55         -73.27          67.93          61.07          54.61          143.5
     1.322              -56.28          17.51          73.37          36.88         0.5597         -16.54         -72.87          67.76          60.87          54.62          143.4
     1.364               -56.2           17.5          73.39          36.92         0.5373         -16.53          -72.4          67.56          60.63          54.65          143.2
     1.407               -56.1          17.48          73.41          36.96         0.5113         -16.51         -71.86          67.33          60.36          54.67          143.0
     1.449              -55.98          17.47          73.44          37.02         0.4808          -16.5         -71.23          67.06          60.04           54.7          142.8
     1.492              -55.84          17.45          73.47          37.08         0.4449         -16.48         -70.48          66.75          59.66          54.73          142.5
     1.535              -55.68          17.42          73.51          37.15         0.4023         -16.46         -69.59          66.37          59.21          54.77          142.2
     1.577              -55.49           17.4          73.56          37.24         0.3511         -16.43         -68.53          65.93          58.66          54.82          141.8
      1.62              -55.25          17.36          73.61          37.34         0.2893          -16.4         -67.24          65.38          58.01          54.88          141.3
     1.663              -54.96          17.32          73.68          37.47         0.2137         -16.36         -65.67          64.72          57.21          54.95          140.8
     1.705              -54.61          17.27          73.77          37.63         0.1204         -16.31         -63.73           63.9          56.23          55.04          140.1
     1.748              -54.17          17.21          73.87          37.83       0.004114         -16.25         -61.31          62.88           55.0          55.15          139.2
      1.79              -53.61          17.13           74.0          38.08        -0.1424         -16.17         -58.27           61.6          53.45          55.29          138.1
     1.833               -52.9          17.03          74.17           38.4        -0.3286         -16.07         -54.39          59.96          51.48          55.46          136.7
     1.876              -51.99           16.9          74.39           38.8         -0.567         -15.95         -49.44          57.87          48.96          55.69          134.9
     1.918              -50.83          16.74          74.67          39.33         -0.873         -15.79         -43.07          55.19          45.73          55.98          132.7
     1.961              -49.34          16.52          75.02          39.99         -1.264         -15.58         -34.95          51.76           41.6          56.35          129.7
     2.004              -47.47          16.26          75.46          40.83         -1.755         -15.32         -24.73          47.44           36.4          56.81          126.1
     2.046              -45.19          15.93          76.01          41.86         -2.354         -15.01         -12.28          42.19          30.07          57.38          121.6
     2.089              -42.55          15.56          76.64          43.04         -3.048         -14.64          2.156           36.1          22.74          58.03          116.4
     2.132              -39.69          15.15          77.32          44.32         -3.799         -14.25          17.78          29.51          14.79          58.74          110.8
     2.174              -36.83          14.75           78.0          45.61         -4.551         -13.85          33.41          22.91          6.849          59.45          105.2
     2.217              -34.19          14.37          78.63          46.79         -5.245         -13.49          47.85          16.82        -0.4872          60.11          99.99
     2.259              -31.91          14.05          79.17          47.81         -5.844         -13.17           60.3          11.57         -6.816          60.67          95.52
     2.302              -30.04          13.78          79.62          48.65         -6.335         -12.91          70.52          7.258         -12.01          61.14          91.85
     2.345              -28.55          13.57          79.97          49.32         -6.726         -12.71          78.64          3.829         -16.14           61.5          88.93
     2.387              -27.39          13.41          80.25          49.84         -7.032         -12.55           85.0          1.144         -19.37          61.79          86.64
      2.43              -26.48          13.28          80.46          50.25          -7.27         -12.42          89.96        -0.9473         -21.89          62.02          84.86
     2.473              -25.77          13.18          80.63          50.57         -7.457         -12.32          93.83         -2.582         -23.86          62.19          83.47
     2.515              -25.21           13.1          80.76          50.82         -7.603         -12.25          96.88         -3.867         -25.41          62.33          82.38
     2.558              -24.77          13.03          80.87          51.02         -7.719         -12.18           99.3         -4.888         -26.64          62.44          81.51
       2.6              -24.42          12.98          80.95          51.17         -7.813         -12.14          101.2         -5.706         -27.63          62.53          80.81
     2.643              -24.13          12.94          81.02           51.3         -7.888          -12.1          102.8         -6.369         -28.43           62.6          80.25
     2.686              -23.89          12.91          81.08          51.41          -7.95         -12.06          104.1         -6.912         -29.08          62.66          79.78
     2.728               -23.7          12.88          81.12           51.5         -8.001         -12.04          105.2          -7.36         -29.62          62.71           79.4
